<svg xmlns="http://www.w3.org/2000/svg" viewBox="0 0 260 320" role="img" aria-labelledby="title"><title id="title">English Twin tutor</title><defs><linearGradient id="hood" x1="0" y1="0" x2="1" y2="1"><stop stop-color="#14294a"/><stop offset="1" stop-color="#284d82"/></linearGradient><linearGradient id="skin" x1="0" y1="0" x2="0" y2="1"><stop stop-color="#ffd8bd"/><stop offset="1" stop-color="#efad88"/></linearGradient></defs><ellipse cx="132" cy="302" rx="92" ry="13" fill="#0d2f66" opacity=".12"/><path d="M67 310c5-78 27-123 65-129 38 6 60 51 64 129z" fill="url(#hood)"/><path d="M98 190c10 16 19 23 34 23 15 0 24-7 34-23l-7-29h-54z" fill="url(#skin)"/><ellipse cx="132" cy="120" rx="54" ry="65" fill="url(#skin)"/><path d="M82 108c0-50 22-78 57-78 30 0 51 16 56 47-10-9-21-15-34-18 5 10 2 20-8 30-25-10-46-9-71 19z" fill="#152035"/><path d="M94 76c-16 12-24 28-24 48 0 18 6 32 16 45-4-22-2-42 8-58z" fill="#152035"/><circle cx="112" cy="120" r="4.5" fill="#172033"/><circle cx="153" cy="120" r="4.5" fill="#172033"/><path d="M116 146c10 9 22 9 32 0" fill="none" stroke="#9d5b48" stroke-width="4.5" stroke-linecap="round"/><path d="M95 110c7-6 14-7 22-3M147 107c8-4 15-3 21 2" fill="none" stroke="#2a2630" stroke-width="4" stroke-linecap="round"/><path d="M85 202c-20 8-34 28-42 59l29 12c8-25 20-40 35-47z" fill="#1b3964"/><path d="M175 202c18 6 31 19 39 39l-27 14c-8-16-17-25-30-28z" fill="#1b3964"/><path d="M211 239c16-14 24-26 26-36" fill="none" stroke="#efb08a" stroke-width="17" stroke-linecap="round"/><circle cx="239" cy="193" r="9" fill="#efb08a"/><path d="M89 211c10 16 24 24 43 24 18 0 33-8 45-24" fill="none" stroke="#3b5f8f" stroke-width="4" opacity=".8"/><path d="M132 235v72" stroke="#f3f7ff" stroke-width="4" opacity=".25"/></svg>