<svg xmlns="http://www.w3.org/2000/svg">
  <symbol id="hello" viewBox="0 0 320 220"><rect width="320" height="220" rx="28" fill="#eef7ff"/><circle cx="160" cy="92" r="50" fill="#ffd6b3"/><circle cx="142" cy="84" r="5"/><circle cx="178" cy="84" r="5"/><path d="M142 109c12 13 25 13 37 0" fill="none" stroke="#222" stroke-width="5" stroke-linecap="round"/><path d="M221 59c20 8 29 22 30 42M237 48c20 7 34 20 41 38" fill="none" stroke="#2b7cff" stroke-width="8" stroke-linecap="round"/><text x="160" y="184" text-anchor="middle" font-family="Arial" font-size="32" font-weight="700" fill="#183153">HELLO</text></symbol>
  <symbol id="water" viewBox="0 0 320 220"><rect width="320" height="220" rx="28" fill="#eefaff"/><path d="M160 36C127 81 102 114 102 149a58 58 0 00116 0c0-35-25-68-58-113z" fill="#47b7ff"/><path d="M126 146c4 23 20 38 41 42" fill="none" stroke="#cceeff" stroke-width="10" stroke-linecap="round"/><text x="160" y="210" text-anchor="middle" font-family="Arial" font-size="28" font-weight="700" fill="#183153">WATER</text></symbol>
  <symbol id="apple" viewBox="0 0 320 220"><rect width="320" height="220" rx="28" fill="#fff5f5"/><path d="M161 70c-26-28-70-17-80 19-15 54 40 102 79 109 40-7 95-55 80-109-10-36-54-47-79-19z" fill="#ef4b4b"/><path d="M160 65c3-27 20-40 39-44" fill="none" stroke="#76502b" stroke-width="9" stroke-linecap="round"/><path d="M177 37c17-17 39-15 50-9-9 20-31 28-50 9z" fill="#45a94f"/><text x="160" y="210" text-anchor="middle" font-family="Arial" font-size="28" font-weight="700" fill="#4c2020">APPLE</text></symbol>
  <symbol id="home" viewBox="0 0 320 220"><rect width="320" height="220" rx="28" fill="#fff9ec"/><path d="M73 109l87-70 87 70v84H73z" fill="#f2bd55"/><path d="M51 112L160 24l109 88" fill="none" stroke="#7e5930" stroke-width="15" stroke-linecap="round" stroke-linejoin="round"/><rect x="137" y="132" width="46" height="61" rx="6" fill="#8b5a3c"/><rect x="92" y="122" width="34" height="34" rx="5" fill="#87ceeb"/><rect x="194" y="122" width="34" height="34" rx="5" fill="#87ceeb"/><text x="160" y="216" text-anchor="middle" font-family="Arial" font-size="28" font-weight="700" fill="#4b3926">HOME</text></symbol>
</svg>
